<?xml version="1.0" standalone="no"?>
<!DOCTYPE svg PUBLIC "-//W3C//DTD SVG 20010904//EN"
 "http://www.w3.org/TR/2001/REC-SVG-20010904/DTD/svg10.dtd">
<svg version="1.0" xmlns="http://www.w3.org/2000/svg"
 width="28.000000pt" height="28.000000pt" viewBox="0 0 28.000000 28.000000"
 preserveAspectRatio="xMidYMid meet">

<g transform="translate(0.000000,28.000000) scale(0.100000,-0.100000)"
fill="#000000" stroke="none">
<path d="M48 219 c-21 -12 -24 -64 -5 -76 6 -4 50 -10 97 -13 77 -5 85 -7 85
-25 0 -18 -8 -20 -83 -23 -67 -2 -83 0 -88 13 -8 21 -24 19 -24 -3 0 -34 21
-42 107 -42 70 0 86 3 104 21 20 20 19 51 -3 74 -5 6 -48 12 -96 15 -68 4 -87
8 -87 20 0 23 155 27 172 4 6 -9 16 -13 22 -10 11 7 3 37 -13 48 -16 11 -168
9 -188 -3z"/>
</g>
</svg>
